<?xml version="1.0" encoding="iso-8859-1"?>
<!-- Generator: Adobe Illustrator 19.0.0, SVG Export Plug-In . SVG Version: 6.00 Build 0)  -->
<svg version="1.1" id="Layer_1" xmlns="http://www.w3.org/2000/svg" xmlns:xlink="http://www.w3.org/1999/xlink" x="0px" y="0px"
	 viewBox="0 0 511.984 511.984" style="enable-background:new 0 0 511.984 511.984;" xml:space="preserve">
<g>
	<g>
		<path d="M410.992,215.488h-7.952c-3.984-34.784-33.664-61.888-69.552-61.888c-10.864,0-18.672,2.208-25.056,5.152
			c-25.84-39.088-70.56-63.968-115.984-63.968C119.6,94.784,62.48,151.504,62,224.096c-36.784,14.848-62,51.952-62,92.24
			C0,371.952,45.312,417.2,100.992,417.2h310c55.68,0,100.992-45.248,100.992-100.864
			C511.984,258.848,468.56,215.488,410.992,215.488z M411.008,401.216H100.992C54.128,401.2,16,363.136,16,316.336
			c0-35.456,23.248-67.984,56.528-79.056L78,235.456v-10.4C78,160.992,128.288,110.8,192.448,110.8
			c41.68,0,84.368,25.152,106.24,62.576l4.08,6.992l6.944-4.16c6.8-4.064,13.152-6.592,23.792-6.592c29.776,0,54,24.176,54,53.888v8
			h23.504c48.448,0,84.992,36.464,84.992,84.848C496,363.152,457.872,401.216,411.008,401.216z"/>
	</g>
</g>
<g>
</g>
<g>
</g>
<g>
</g>
<g>
</g>
<g>
</g>
<g>
</g>
<g>
</g>
<g>
</g>
<g>
</g>
<g>
</g>
<g>
</g>
<g>
</g>
<g>
</g>
<g>
</g>
<g>
</g>
</svg>
