<?xml version="1.0" encoding="utf-8"?>
<!-- Svg Vector Icons : http://www.onlinewebfonts.com/icon -->
<!DOCTYPE svg PUBLIC "-//W3C//DTD SVG 1.1//EN" "http://www.w3.org/Graphics/SVG/1.1/DTD/svg11.dtd">
<svg version="1.1" xmlns="http://www.w3.org/2000/svg" xmlns:xlink="http://www.w3.org/1999/xlink" x="0px" y="0px" viewBox="0 0 1000 1000" enable-background="new 0 0 1000 1000" xml:space="preserve">
<metadata> Svg Vector Icons : http://www.onlinewebfonts.com/icon </metadata>
<g><g transform="translate(0.000000,511.000000) scale(0.100000,-0.100000)"><path d="M3896.9,4987c-916-147.2-1701.1-708-2114.7-1509.5c-137.9-266.4-238.3-563.2-294.4-850.6c-30.4-163.6-35.1-296.8-28-602.9l11.7-390.2l-60.8-14c-186.9-37.4-350.5-88.8-476.7-154.2C534.3,1266.9,237.6,888.4,134.7,449.1C74,199.1,95-165.5,181.5-399.2c140.2-380.9,420.6-696.3,764.1-862.3c364.5-175.3,177.6-165.9,3741.1-165.9c3444.4,0,3371.9-2.3,3743.5,123.8c673,229,1189.4,775.8,1406.7,1481.5c56.1,189.3,63.1,238.3,63.1,602.9c0,366.9-4.7,413.6-63.1,602.9C9549.5,2316.1,8771.3,2933,7822.6,2982.1c-184.6,9.3-317.8,2.3-476.7-25.7c-121.5-21-229-30.4-236-21c-9.4,9.3-35,77.1-58.4,147.2c-56.1,172.9-217.3,497.7-334.2,670.6c-415.9,612.2-1037.5,1032.8-1780.6,1201.1C4665.7,5015.1,4170.3,5031.4,3896.9,4987z M4562.9,4648.2c567.8-60.8,1074.9-285.1,1488.5-663.6c315.5-287.4,595.9-754.8,719.7-1194.1c58.4-210.3,114.5-292.1,196.3-292.1c21,0,102.8,21,182.3,46.7c864.6,271.1,1785.3-112.2,2203.5-913.7c149.6-289.8,198.6-495.4,196.3-850.6c0-348.2-32.7-502.4-170.6-794.5c-226.7-481.4-666-845.9-1208.1-997.8l-184.6-53.7l-3189.7-7c-1913.8-2.4-3245.7,2.3-3329.9,16.3C915.2-969.3,496.9-530,457.2,9.8C405.8,694.4,952.6,1281,1644.3,1283.3c151.9,0,233.7,49.1,238.3,140.2c0,32.7-18.7,168.3-42.1,301.4c-102.8,598.2,32.7,1259.5,369.2,1782.9c406.6,630.9,1105.3,1058.5,1860,1138C4322.2,4673.9,4317.5,4673.9,4562.9,4648.2z"/><path d="M2705.2-2233.5c-32.7-30.4-58.4-84.1-58.4-116.8c0-32.7,25.7-86.5,58.4-116.8l56.1-58.4h2381.2c2292.4,0,2385.8,2.3,2437.2,44.4c74.8,60.8,74.8,201,0,261.7c-51.4,42.1-144.9,44.4-2437.2,44.4H2761.2L2705.2-2233.5z"/><path d="M1945.7-3313.1c-123.8-44.4-161.2-217.3-67.8-301.4c46.7-42.1,126.2-44.4,2413.8-49.1c1867.1-4.7,2374.1,0,2420.9,23.4c121.5,60.8,121.5,245.4,0,308.4c-58.4,30.4-357.5,35.1-2399.9,32.7C3030-3299,1964.4-3306.1,1945.7-3313.1z"/><path d="M3266-4500.1c-74.8-72.4-77.1-172.9-4.7-240.7l53.8-51.4h2388.2c2357.8,0,2388.2,0,2434.9,46.7c70.1,70.1,63.1,193.9-14,254.7c-63.1,49.1-70.1,49.1-2432.6,49.1H3322.1L3266-4500.1z"/></g></g>
</svg>