<?xml version="1.0" encoding="utf-8"?>
<!-- Svg Vector Icons : http://www.onlinewebfonts.com/icon -->
<!DOCTYPE svg PUBLIC "-//W3C//DTD SVG 1.1//EN" "http://www.w3.org/Graphics/SVG/1.1/DTD/svg11.dtd">
<svg version="1.1" xmlns="http://www.w3.org/2000/svg" xmlns:xlink="http://www.w3.org/1999/xlink" x="0px" y="0px" viewBox="0 0 1000 1000" enable-background="new 0 0 1000 1000" xml:space="preserve">
<metadata> Svg Vector Icons : http://www.onlinewebfonts.com/icon </metadata>
<g><g transform="translate(0.000000,511.000000) scale(0.100000,-0.100000)"><path d="M2430.1,4276.2c-285.1-211.4-506.2-426.7-688.5-669.1C1004.6,2625.7,948.3,1303,1600,222.7c54.3-89.2,65.9-126.1,56.2-174.6c-11.6-58.2-23.3-65.9-164.9-116.4c-283.2-100.9-630.3-339.4-839.8-579.9C58.1-1330.9-66-2228.9,325.8-3010.5c329.7-655.6,981.4-1107.5,1706.8-1185c120.3-11.7,1204.4-17.5,3103.2-11.7c3176.9,5.8,2969.4,0,3299.1,112.5c1084.2,370.5,1697.1,1528.4,1382.9,2610.6c-133.8,461.6-440.3,892.2-826.3,1163.7c-137.7,95-151.3,112.5-151.3,170.7c0,195.9-124.1,626.5-256,892.2c-403.4,803-1109.4,1340.2-2013.2,1536.1c-228.9,48.5-808.8,48.5-1053.2,0c-558.6-112.5-1043.5-370.4-1464.3-777.8l-219.2-211.4l-139.6,95c-306.5,207.5-686.6,642-859.2,981.4c-267.7,527.5-345.2,1124.9-232.7,1778.5c27.2,155.2,46.5,283.2,44.6,285.1C2645.4,4431.4,2546.5,4363.5,2430.1,4276.2z M2302.1,3027.2c50.4-242.4,143.5-523.7,252.1-746.7c180.4-378.2,525.6-808.8,845.6-1053.2c79.5-62.1,145.5-114.4,145.5-116.4s-58.2,13.6-130,31c-166.8,44.6-492.6,46.5-663.3,7.8c-304.5-71.8-630.3-285.1-826.2-543.1l-112.5-145.5l-48.5,79.5c-27.2,44.6-81.5,162.9-122.2,259.9c-376.3,925.2-211.4,1958.9,438.3,2742.5l155.2,186.2l13.6-252.1C2257.5,3337.5,2280.8,3135.8,2302.1,3027.2z M6495.4,1981.8c1055.1-180.4,1856.1-981.4,2024.9-2024.9c15.5-100.9,29.1-225,29.1-275.4c0-89.2,1.9-89.2,108.6-151.3c591.6-333.6,938.7-925.2,938.7-1600.1c0-515.9-186.2-960.1-552.8-1318.9c-271.5-265.7-642-446.1-1018.2-494.6c-114.4-15.5-1066.7-19.4-3132.3-15.5l-2967.5,5.8l-147.4,42.7c-803,226.9-1318.9,857.3-1369.3,1664.1C356.8-1311.5,897.9-541.5,1731.9-310.7c85.3,23.3,164.9,50.4,176.5,58.2c11.6,9.7,27.1,71.8,34.9,139.6c23.3,236.6,137.7,481,300.6,649.7c343.3,353,882.5,444.2,1328.6,221.1c73.7-36.8,151.3-77.6,172.6-93.1c36.9-27.2,44.6-19.4,133.8,130c133.8,221.1,236.6,349.1,434.4,539.2c353,337.5,795.2,562.5,1278.1,647.8C5808.8,2020.6,6268.5,2020.6,6495.4,1981.8z"/></g></g>
</svg>