<?xml version="1.0" encoding="utf-8"?>
<!-- Svg Vector Icons : http://www.onlinewebfonts.com/icon -->
<!DOCTYPE svg PUBLIC "-//W3C//DTD SVG 1.1//EN" "http://www.w3.org/Graphics/SVG/1.1/DTD/svg11.dtd">
<svg version="1.1" xmlns="http://www.w3.org/2000/svg" xmlns:xlink="http://www.w3.org/1999/xlink" x="0px" y="0px" viewBox="0 0 1000 1000" enable-background="new 0 0 1000 1000" xml:space="preserve">
<metadata> Svg Vector Icons : http://www.onlinewebfonts.com/icon </metadata>
<g><g transform="translate(0.000000,441.000000) scale(0.100000,-0.100000)"><path d="M4197.1,4301.1c-925.5-73.6-1773-758.3-2047.3-1650.3c-69.1-225.2-116-495.1-116-675.7v-160.6l-149.4-15.6c-258.7-26.8-432.7-75.8-675.7-196.3c-207.4-102.6-258.7-140.5-459.4-339c-198.5-200.7-236.4-249.8-339-459.4C249.7,471.9,218.5,342.5,218.5-21s31.2-492.9,191.8-825.1c102.6-209.6,140.5-258.7,339-459.4c200.7-198.5,252-236.4,459.4-339c423.7-207.4,136-191.8,3445.6-200.7c2118.7-4.5,2979.5,0,3133.4,17.8c802.9,100.4,1509.8,631.1,1824.3,1369.3c131.6,316.7,169.5,515.2,169.5,894.3c0,383.6-37.9,582.1-176.2,903.2c-160.6,374.7-486.2,769.4-818.5,988c-562,370.2-1248.9,481.7-1886.7,303.3c-91.4-24.5-167.3-42.4-169.5-37.9c-2.2,4.5-29,71.4-58,151.7c-223,633.4-727.1,1148.5-1371.6,1407.3C4975.5,4281,4594.1,4332.3,4197.1,4301.1z M4933.1,3792.6c512.9-145,956.7-499.6,1199.8-954.5c102.6-196.3,165-379.1,216.4-651.2c22.3-104.8,44.6-200.7,53.5-216.3c8.9-17.8,87,6.7,260.9,82.5c330.1,147.2,463.9,180.6,769.4,194c533,24.5,963.4-138.3,1342.6-504c368-354.6,553.1-791.7,553.1-1306.9c0-521.9-189.6-961.2-566.5-1320.3c-260.9-247.5-535.3-392.5-876.4-463.9c-243.1-49.1-5970.2-49.1-6182.1,0c-240.9,58-441.6,174-640.1,376.9C791.6-694.5,671.2-402.4,671.2-21s120.4,673.5,392.5,950.1c345.7,352.4,724.8,466.1,1293.5,385.8c93.7-13.4,176.2-17.8,182.9-11.1c6.7,4.5-4.5,147.2-24.5,312.2c-64.7,562,33.5,990.2,323.4,1409.5c289.9,417,762.7,718.1,1277.9,811.8C4301.9,3870.7,4741.3,3846.1,4933.1,3792.6z"/><path d="M1442.8-2583.5c-35.7-22.3-274.3-252-528.6-508.5l-463.9-468.3v-104.8c0-91.4,11.2-116,69.1-171.7c75.8-71.3,147.2-80.3,238.6-33.4c33.5,17.9,278.8,252,546.4,519.6c479.5,483.9,484,488.4,484,584.3C1788.5-2579,1603.4-2483.1,1442.8-2583.5z"/><path d="M4230.6-2784.2c-24.5-11.1-64.7-42.4-89.2-69.1c-40.1-44.6-44.6-87-51.3-459.4c-4.5-225.2-11.2-410.3-17.9-410.3c-4.5,0-149.4,80.3-321.1,180.6c-336.8,194-417.1,216.3-521.9,140.5c-100.4-75.8-118.2-234.2-35.7-332.3c13.4-17.8,160.6-107.1,325.6-203c165-93.7,305.5-178.4,310-189.6c6.7-8.9-122.7-93.6-285.5-187.3c-356.8-200.7-401.4-243.1-401.4-370.2c0-78.1,13.4-107.1,71.4-158.4c111.5-100.4,171.7-87,544.2,124.9l327.8,189.6l2.2-383.6c2.2-211.9,8.9-408.1,17.8-437.1c35.7-129.4,240.9-187.3,341.2-98.1c89.2,80.3,107,165,107,541.9c0,196.3,4.5,356.8,11.2,356.8c6.7,0,145-78.1,307.8-171.7c249.8-145,310-171.7,397-171.7c124.9-2.2,191.8,46.8,211.9,158.3c26.7,145-26.8,207.4-316.7,374.7c-142.7,82.5-289.9,167.3-325.6,189.6l-64.7,40.1l285.5,162.8c341.3,194,430.4,274.3,430.4,383.6c0,91.4-64.7,180.6-151.7,211.9c-87,29-162.8,0-495.1-191.8l-278.8-160.6l-11.2,397c-8.9,332.3-17.8,405.9-51.3,457.2C4442.4-2777.5,4333.2-2744.1,4230.6-2784.2z"/><path d="M8042-2828.8c-46.9-35.7-278.8-258.7-512.9-495.1c-339-343.4-432.7-450.5-450.5-519.6c-42.4-147.2,62.5-281,216.3-281c73.6,0,118.2,40.1,597.7,519.6c517.4,517.4,519.7,519.6,519.7,615.5c0,78.1-13.4,107.1-69.1,160.6C8251.6-2744.1,8157.9-2744.1,8042-2828.8z"/></g></g>
</svg>